<svg width="28" height="28" viewBox="0 0 28 28" xmlns="http://www.w3.org/2000/svg">
<path fill-rule="evenodd" clip-rule="evenodd" d="M0.666534 14.0001C0.666534 6.64014 6.62653 0.666809 13.9999 0.666809C21.3599 0.666809 27.3332 6.64014 27.3332 14.0001C27.3332 21.3735 21.3599 27.3335 13.9999 27.3335C6.62653 27.3335 0.666534 21.3735 0.666534 14.0001ZM16.9732 16.4401L19.1332 9.61348C19.2799 9.14681 18.8532 8.70681 18.3865 8.85348L11.5599 10.9868C11.2799 11.0801 11.0532 11.2935 10.9732 11.5735L8.83987 18.4135C8.6932 18.8668 9.1332 19.3068 9.58653 19.1601L16.3865 17.0268C16.6665 16.9468 16.8932 16.7201 16.9732 16.4401Z"/>
</svg>
