<svg width="28" height="28" viewBox="0 0 28 28" fill="none" xmlns="http://www.w3.org/2000/svg">
<path d="M9.79076 26.295V22.0013C9.79074 20.9133 10.722 20.0294 11.8756 20.0225H16.1112C17.2699 20.0225 18.2092 20.9085 18.2092 22.0013V26.2825C18.2092 27.2262 19.0165 27.9931 20.017 28H22.9067C24.2563 28.0033 25.5518 27.4999 26.5074 26.601C27.463 25.7021 28 24.4815 28 23.2085V11.0122C28 9.98394 27.5167 9.0086 26.6805 8.3489L16.8633 0.943976C15.1473 -0.351229 12.6963 -0.309388 11.0311 1.04354L1.42507 8.3489C0.549302 8.98915 0.0258665 9.96739 0 11.0122V23.1961C0 25.8492 2.28035 28 5.09331 28H7.91706C8.39878 28.0033 8.86198 27.8251 9.20385 27.505C9.54573 27.1849 9.738 26.7493 9.73798 26.295H9.79076Z"/>
</svg>
